<mxfile host="app.diagrams.net" modified="2021-10-13T07:33:49.668Z" agent="5.0 (Windows)" etag="EqzWeMHTtLw3X7lbzvs0" version="15.4.3" type="github">
  <diagram id="2qMUxgMej4gLNcx7ZliX" name="Page-1">
    <mxGraphModel dx="1021" dy="518" grid="1" gridSize="10" guides="1" tooltips="1" connect="1" arrows="1" fold="1" page="1" pageScale="1" pageWidth="827" pageHeight="1169" math="0" shadow="0">
      <root>
        <mxCell id="0" />
        <mxCell id="1" parent="0" />
        <mxCell id="K9f26ymDvl0oXV1aiBuQ-2" style="edgeStyle=orthogonalEdgeStyle;rounded=0;orthogonalLoop=1;jettySize=auto;html=1;" edge="1" parent="1" source="K9f26ymDvl0oXV1aiBuQ-1">
          <mxGeometry relative="1" as="geometry">
            <mxPoint x="410" y="170" as="targetPoint" />
          </mxGeometry>
        </mxCell>
        <mxCell id="K9f26ymDvl0oXV1aiBuQ-1" value="Inicio" style="ellipse;whiteSpace=wrap;html=1;" vertex="1" parent="1">
          <mxGeometry x="350" y="40" width="120" height="80" as="geometry" />
        </mxCell>
        <mxCell id="K9f26ymDvl0oXV1aiBuQ-9" style="edgeStyle=orthogonalEdgeStyle;rounded=0;orthogonalLoop=1;jettySize=auto;html=1;" edge="1" parent="1" source="K9f26ymDvl0oXV1aiBuQ-3">
          <mxGeometry relative="1" as="geometry">
            <mxPoint x="390" y="470" as="targetPoint" />
          </mxGeometry>
        </mxCell>
        <mxCell id="K9f26ymDvl0oXV1aiBuQ-3" value="num" style="shape=parallelogram;perimeter=parallelogramPerimeter;whiteSpace=wrap;html=1;fixedSize=1;" vertex="1" parent="1">
          <mxGeometry x="330" y="350" width="120" height="60" as="geometry" />
        </mxCell>
        <mxCell id="K9f26ymDvl0oXV1aiBuQ-12" style="edgeStyle=orthogonalEdgeStyle;rounded=0;orthogonalLoop=1;jettySize=auto;html=1;" edge="1" parent="1" source="K9f26ymDvl0oXV1aiBuQ-4">
          <mxGeometry relative="1" as="geometry">
            <mxPoint x="400" y="260" as="targetPoint" />
          </mxGeometry>
        </mxCell>
        <mxCell id="K9f26ymDvl0oXV1aiBuQ-4" value="&lt;div&gt;num = 0&lt;/div&gt;&lt;div&gt;suma = 0&lt;br&gt;&lt;/div&gt;" style="rounded=0;whiteSpace=wrap;html=1;" vertex="1" parent="1">
          <mxGeometry x="340" y="170" width="120" height="60" as="geometry" />
        </mxCell>
        <mxCell id="K9f26ymDvl0oXV1aiBuQ-7" value="" style="edgeStyle=orthogonalEdgeStyle;rounded=0;orthogonalLoop=1;jettySize=auto;html=1;" edge="1" parent="1" source="K9f26ymDvl0oXV1aiBuQ-5" target="K9f26ymDvl0oXV1aiBuQ-3">
          <mxGeometry relative="1" as="geometry" />
        </mxCell>
        <mxCell id="K9f26ymDvl0oXV1aiBuQ-5" value="&quot;Introduce el numero: &quot;" style="shape=display;whiteSpace=wrap;html=1;" vertex="1" parent="1">
          <mxGeometry x="300" y="260" width="180" height="60" as="geometry" />
        </mxCell>
        <mxCell id="K9f26ymDvl0oXV1aiBuQ-11" style="edgeStyle=orthogonalEdgeStyle;rounded=0;orthogonalLoop=1;jettySize=auto;html=1;" edge="1" parent="1" source="K9f26ymDvl0oXV1aiBuQ-10">
          <mxGeometry relative="1" as="geometry">
            <mxPoint x="390" y="580" as="targetPoint" />
          </mxGeometry>
        </mxCell>
        <mxCell id="K9f26ymDvl0oXV1aiBuQ-10" value="suma = suma + num" style="rounded=0;whiteSpace=wrap;html=1;" vertex="1" parent="1">
          <mxGeometry x="330" y="470" width="120" height="60" as="geometry" />
        </mxCell>
        <mxCell id="K9f26ymDvl0oXV1aiBuQ-14" style="rounded=0;orthogonalLoop=1;jettySize=auto;html=1;edgeStyle=isometricEdgeStyle;elbow=vertical;exitX=0;exitY=0.5;exitDx=0;exitDy=0;" edge="1" parent="1" source="K9f26ymDvl0oXV1aiBuQ-13">
          <mxGeometry relative="1" as="geometry">
            <mxPoint x="380" y="250" as="targetPoint" />
            <mxPoint x="530" y="620" as="sourcePoint" />
            <Array as="points">
              <mxPoint x="170" y="350" />
            </Array>
          </mxGeometry>
        </mxCell>
        <mxCell id="K9f26ymDvl0oXV1aiBuQ-13" value="num!=0" style="rhombus;whiteSpace=wrap;html=1;" vertex="1" parent="1">
          <mxGeometry x="350" y="580" width="80" height="80" as="geometry" />
        </mxCell>
        <mxCell id="K9f26ymDvl0oXV1aiBuQ-17" value="&lt;div&gt;Si&lt;/div&gt;&lt;div&gt;&lt;br&gt;&lt;/div&gt;" style="text;html=1;align=center;verticalAlign=middle;resizable=0;points=[];autosize=1;strokeColor=none;fillColor=none;" vertex="1" parent="1">
          <mxGeometry x="225" y="525" width="30" height="30" as="geometry" />
        </mxCell>
        <mxCell id="K9f26ymDvl0oXV1aiBuQ-21" style="edgeStyle=orthogonalEdgeStyle;rounded=0;orthogonalLoop=1;jettySize=auto;html=1;exitX=1;exitY=0.5;exitDx=0;exitDy=0;" edge="1" parent="1" source="K9f26ymDvl0oXV1aiBuQ-13">
          <mxGeometry relative="1" as="geometry">
            <mxPoint x="500" y="620" as="targetPoint" />
            <mxPoint x="470" y="585" as="sourcePoint" />
          </mxGeometry>
        </mxCell>
        <mxCell id="K9f26ymDvl0oXV1aiBuQ-22" value="No" style="text;html=1;align=center;verticalAlign=middle;resizable=0;points=[];autosize=1;strokeColor=none;fillColor=none;" vertex="1" parent="1">
          <mxGeometry x="445" y="590" width="30" height="20" as="geometry" />
        </mxCell>
        <mxCell id="K9f26ymDvl0oXV1aiBuQ-23" value="&quot;La suma es: &quot; suma" style="shape=display;whiteSpace=wrap;html=1;" vertex="1" parent="1">
          <mxGeometry x="500" y="590" width="180" height="60" as="geometry" />
        </mxCell>
        <mxCell id="K9f26ymDvl0oXV1aiBuQ-24" style="edgeStyle=orthogonalEdgeStyle;rounded=0;orthogonalLoop=1;jettySize=auto;html=1;exitX=1;exitY=0.5;exitDx=0;exitDy=0;" edge="1" parent="1">
          <mxGeometry relative="1" as="geometry">
            <mxPoint x="750" y="619.5" as="targetPoint" />
            <mxPoint x="680" y="619.5" as="sourcePoint" />
          </mxGeometry>
        </mxCell>
        <mxCell id="K9f26ymDvl0oXV1aiBuQ-25" value="Fin" style="ellipse;whiteSpace=wrap;html=1;" vertex="1" parent="1">
          <mxGeometry x="750" y="590" width="120" height="60" as="geometry" />
        </mxCell>
      </root>
    </mxGraphModel>
  </diagram>
</mxfile>
